<svg width="342" height="81" viewBox="0 0 342 81" fill="none" xmlns="http://www.w3.org/2000/svg">
<rect width="341.602" height="80.2061" fill="white"/>
<path d="M33.5723 66.1754L55.582 58.4648L57.8721 60.7989L60.3248 63.2098L46.6606 67.968L33.5723 72.6011" stroke="#4B382E"/>
<path d="M34 66.1754L11.9903 58.4648L9.635 60.8896L7.24751 63.2098L21.0204 67.9148L34 72.6011" stroke="#4B382E"/>
<rect x="11.9277" y="58.8608" width="2.14844" height="6.24888" fill="#4B382E"/>
<rect width="2.14844" height="6.24888" transform="matrix(-1 0 0 1 55.8477 58.8525)" fill="#4B382E"/>
<rect x="14.834" y="59.8301" width="2.14844" height="6.24888" fill="#4B382E"/>
<rect width="2.14844" height="6.24888" transform="matrix(-1 0 0 1 52.9414 59.8218)" fill="#4B382E"/>
<rect x="17.7402" y="60.7993" width="2.14844" height="6.24888" fill="#4B382E"/>
<rect width="2.14844" height="6.24888" transform="matrix(-1 0 0 1 50.0352 60.7905)" fill="#4B382E"/>
<rect x="20.9648" y="61.9854" width="2.14844" height="6.24888" fill="#4B382E"/>
<rect width="2.14844" height="6.24888" transform="matrix(-1 0 0 1 46.8105 61.9771)" fill="#4B382E"/>
<rect x="24.0312" y="63.125" width="2.14844" height="6.24888" fill="#4B382E"/>
<rect width="2.14844" height="6.24888" transform="matrix(-1 0 0 1 43.7441 63.1167)" fill="#4B382E"/>
<rect x="26.9375" y="64.0942" width="2.14844" height="6.24888" fill="#4B382E"/>
<rect width="2.14844" height="6.24888" transform="matrix(-1 0 0 1 40.8379 64.0859)" fill="#4B382E"/>
<rect x="29.8438" y="65.1099" width="2.14844" height="6.24888" fill="#4B382E"/>
<rect width="2.14844" height="6.24888" transform="matrix(-1 0 0 1 37.9316 65.1011)" fill="#4B382E"/>
<rect x="31.2656" y="65.6318" width="2.14844" height="6.24888" fill="#4B382E"/>
<rect width="2.14844" height="6.24888" transform="matrix(-1 0 0 1 36.5098 65.6235)" fill="#4B382E"/>
<rect x="13.3496" y="59.5645" width="2.14844" height="5.88646" fill="#4B382E"/>
<rect width="2.14844" height="5.88646" transform="matrix(-1 0 0 1 54.4258 59.5562)" fill="#4B382E"/>
<rect x="16.2559" y="60.5337" width="2.14844" height="5.88646" fill="#4B382E"/>
<rect width="2.14844" height="5.88646" transform="matrix(-1 0 0 1 51.5195 60.5254)" fill="#4B382E"/>
<rect x="19.1621" y="61.5029" width="2.14844" height="6.01653" fill="#4B382E"/>
<rect width="2.14844" height="6.01653" transform="matrix(-1 0 0 1 48.6133 61.4941)" fill="#4B382E"/>
<rect x="22.3867" y="62.689" width="2.14844" height="5.88646" fill="#4B382E"/>
<rect width="2.14844" height="5.88646" transform="matrix(-1 0 0 1 45.3887 62.6802)" fill="#4B382E"/>
<rect x="25.4531" y="63.8286" width="2.14844" height="5.88646" fill="#4B382E"/>
<rect width="2.14844" height="5.97176" transform="matrix(-1 0 0 1 42.3223 63.7349)" fill="#4B382E"/>
<rect x="28.3594" y="64.7979" width="2.14844" height="5.88646" fill="#4B382E"/>
<rect width="2.14844" height="5.88646" transform="matrix(-1 0 0 1 39.416 64.7891)" fill="#4B382E"/>
<rect x="31.2656" y="65.813" width="2.14844" height="5.88646" fill="#4B382E"/>
<rect width="2.14844" height="5.88646" transform="matrix(-1 0 0 1 36.5098 65.8047)" fill="#4B382E"/>
<rect x="32.6875" y="66.3359" width="2.14844" height="5.88646" fill="#4B382E"/>
<rect width="2.14844" height="5.88646" transform="matrix(-1 0 0 1 35.0879 66.3276)" fill="#4B382E"/>
<rect x="11.2012" y="58.9863" width="2.14844" height="5.66259" fill="#4B382E"/>
<rect width="2.14844" height="5.66259" transform="matrix(-1 0 0 1 56.5742 58.9775)" fill="#4B382E"/>
<rect x="10.4297" y="59.9238" width="2.14844" height="4.21751" fill="#4B382E"/>
<rect width="2.14844" height="4.21751" transform="matrix(-1 0 0 1 57.3457 59.9146)" fill="#4B382E"/>
<rect x="9.35547" y="60.875" width="2.14844" height="2.96504" fill="#4B382E"/>
<rect width="2.14844" height="2.96504" transform="matrix(-1 0 0 1 58.4199 60.8667)" fill="#4B382E"/>
<rect x="8.69922" y="61.8438" width="1.86719" height="1.99625" fill="#4B382E"/>
<rect width="1.86719" height="1.99625" transform="matrix(-1 0 0 1 59.0762 61.835)" fill="#4B382E"/>
<rect x="7.76562" y="62.3574" width="1.86719" height="1.18419" fill="#4B382E"/>
<rect width="1.86719" height="1.18419" transform="matrix(-1 0 0 1 60.0098 62.3491)" fill="#4B382E"/>
<path d="M30.623 8.48389C30.9702 8.39954 31.3204 8.38089 31.6602 8.41846C34.7409 8.49647 37.579 9.66922 39.6582 11.8823C41.2724 13.6006 42.3076 15.8135 42.7217 18.3364C43.3309 18.5277 43.9216 18.7788 44.4814 19.0933C45.6963 19.7757 46.7408 20.7268 47.5273 21.8774C48.314 23.0284 48.8199 24.3466 48.998 25.73C49.0698 26.2876 49.0863 26.8489 49.0508 27.4058C50.0599 28.233 50.9076 29.2485 51.5381 30.4058C52.2373 31.6892 52.6421 33.0998 52.7334 34.5405C53.9303 35.5219 54.8971 36.7636 55.5439 38.186C56.46 40.2008 56.6803 42.4558 56.165 44.6079C55.6501 46.7587 54.4335 48.6723 52.7188 50.0728C51.0054 51.472 48.8832 52.2876 46.6719 52.4136C46.6153 52.4168 46.5586 52.4184 46.502 52.4185H21.5059C19.2391 52.4185 17.0254 51.6926 15.2109 50.3384C13.3948 48.9829 12.0763 47.069 11.4834 44.8843C10.8902 42.6982 11.0632 40.3829 11.9707 38.3071C12.6172 36.8286 13.6079 35.5395 14.8438 34.5269C14.9353 33.0862 15.3406 31.6754 16.04 30.3921C16.6704 29.2356 17.5179 28.2209 18.5264 27.394C18.4908 26.8375 18.5074 26.2766 18.5791 25.7192C18.7571 24.336 19.2625 23.0177 20.0488 21.8667C20.835 20.7161 21.8794 19.7652 23.0938 19.0825C24.3078 18.4 25.6628 18.0015 27.0527 17.9126L27.2441 17.9067H27.6465C28.0603 17.9067 28.6442 17.6594 29.0361 16.7495C29.4128 15.8748 29.5105 14.4774 28.7129 12.8726C28.4708 12.4399 28.3311 11.9417 28.3311 11.4106V11.3989C28.3311 10.015 29.2783 8.81077 30.623 8.48389Z" stroke="#4B382E" stroke-width="6" stroke-linecap="round" stroke-linejoin="round"/>
<path d="M75.0463 67V16.8182H92.9334C96.8375 16.8182 100.072 17.5288 102.637 18.9499C105.201 20.3711 107.121 22.315 108.395 24.7816C109.669 27.2319 110.306 29.9925 110.306 33.0636C110.306 36.1509 109.661 38.9279 108.37 41.3945C107.096 43.8448 105.169 45.7887 102.588 47.2262C100.023 48.6474 96.7967 49.358 92.9089 49.358H80.6085V42.9382H92.2228C94.6895 42.9382 96.6905 42.5135 98.226 41.6641C99.7615 40.7983 100.889 39.6222 101.607 38.1357C102.326 36.6491 102.686 34.9585 102.686 33.0636C102.686 31.1687 102.326 29.4862 101.607 28.016C100.889 26.5458 99.7534 25.3942 98.2015 24.5611C96.666 23.728 94.6404 23.3114 92.1248 23.3114H82.6177V67H75.0463ZM130.526 67.7596C126.997 67.7596 123.918 66.951 121.288 65.3338C118.658 63.7166 116.616 61.4542 115.162 58.5465C113.709 55.6388 112.982 52.2411 112.982 48.3533C112.982 44.4492 113.709 41.0352 115.162 38.1111C116.616 35.1871 118.658 32.9165 121.288 31.2994C123.918 29.6822 126.997 28.8736 130.526 28.8736C134.054 28.8736 137.133 29.6822 139.763 31.2994C142.393 32.9165 144.435 35.1871 145.889 38.1111C147.343 41.0352 148.07 44.4492 148.07 48.3533C148.07 52.2411 147.343 55.6388 145.889 58.5465C144.435 61.4542 142.393 63.7166 139.763 65.3338C137.133 66.951 134.054 67.7596 130.526 67.7596ZM130.55 61.6094C132.837 61.6094 134.732 61.005 136.235 59.7962C137.738 58.5874 138.848 56.9783 139.567 54.9691C140.302 52.9599 140.67 50.7464 140.67 48.3288C140.67 45.9276 140.302 43.7223 139.567 41.7131C138.848 39.6875 137.738 38.0621 136.235 36.837C134.732 35.6119 132.837 34.9993 130.55 34.9993C128.247 34.9993 126.336 35.6119 124.817 36.837C123.314 38.0621 122.195 39.6875 121.46 41.7131C120.741 43.7223 120.381 45.9276 120.381 48.3288C120.381 50.7464 120.741 52.9599 121.46 54.9691C122.195 56.9783 123.314 58.5874 124.817 59.7962C126.336 61.005 128.247 61.6094 130.55 61.6094ZM168.651 67.7596C165.122 67.7596 162.043 66.951 159.413 65.3338C156.783 63.7166 154.741 61.4542 153.288 58.5465C151.834 55.6388 151.107 52.2411 151.107 48.3533C151.107 44.4492 151.834 41.0352 153.288 38.1111C154.741 35.1871 156.783 32.9165 159.413 31.2994C162.043 29.6822 165.122 28.8736 168.651 28.8736C172.179 28.8736 175.258 29.6822 177.888 31.2994C180.518 32.9165 182.56 35.1871 184.014 38.1111C185.468 41.0352 186.195 44.4492 186.195 48.3533C186.195 52.2411 185.468 55.6388 184.014 58.5465C182.56 61.4542 180.518 63.7166 177.888 65.3338C175.258 66.951 172.179 67.7596 168.651 67.7596ZM168.675 61.6094C170.962 61.6094 172.857 61.005 174.36 59.7962C175.863 58.5874 176.974 56.9783 177.692 54.9691C178.428 52.9599 178.795 50.7464 178.795 48.3288C178.795 45.9276 178.428 43.7223 177.692 41.7131C176.974 39.6875 175.863 38.0621 174.36 36.837C172.857 35.6119 170.962 34.9993 168.675 34.9993C166.372 34.9993 164.461 35.6119 162.942 36.837C161.439 38.0621 160.32 39.6875 159.585 41.7131C158.866 43.7223 158.507 45.9276 158.507 48.3288C158.507 50.7464 158.866 52.9599 159.585 54.9691C160.32 56.9783 161.439 58.5874 162.942 59.7962C164.461 61.005 166.372 61.6094 168.675 61.6094ZM198.249 16.8182V67H190.923V16.8182H198.249ZM215.608 67.8331C213.223 67.8331 211.067 67.392 209.139 66.5099C207.212 65.6115 205.684 64.3129 204.557 62.614C203.447 60.9151 202.891 58.8324 202.891 56.3658C202.891 54.2422 203.3 52.4943 204.116 51.1222C204.933 49.75 206.036 48.6637 207.424 47.8633C208.813 47.0629 210.365 46.4585 212.08 46.0501C213.795 45.6417 215.543 45.3313 217.323 45.119C219.578 44.8576 221.407 44.6452 222.812 44.4819C224.217 44.3022 225.238 44.0163 225.875 43.6243C226.512 43.2322 226.83 42.5952 226.83 41.7131V41.5415C226.83 39.4016 226.226 37.7436 225.017 36.5675C223.825 35.3913 222.044 34.8033 219.676 34.8033C217.209 34.8033 215.265 35.3505 213.844 36.445C212.439 37.5231 211.467 38.7237 210.928 40.0469L204.043 38.4787C204.86 36.1918 206.052 34.3459 207.62 32.9411C209.205 31.5199 211.026 30.4908 213.084 29.8537C215.143 29.2003 217.307 28.8736 219.578 28.8736C221.08 28.8736 222.673 29.0533 224.356 29.4126C226.054 29.7557 227.639 30.3928 229.109 31.3239C230.596 32.255 231.813 33.5863 232.76 35.3178C233.708 37.033 234.181 39.2628 234.181 42.0071V67H227.026V61.8544H226.732C226.259 62.8018 225.548 63.733 224.601 64.6477C223.653 65.5625 222.436 66.3221 220.95 66.9265C219.463 67.5309 217.683 67.8331 215.608 67.8331ZM217.201 61.9524C219.226 61.9524 220.958 61.5522 222.395 60.7518C223.849 59.9513 224.952 58.9059 225.703 57.6154C226.471 56.3086 226.855 54.9119 226.855 53.4254V48.5739C226.594 48.8352 226.087 49.0803 225.336 49.3089C224.601 49.5213 223.759 49.7092 222.812 49.8725C221.865 50.0195 220.942 50.1584 220.043 50.2891C219.145 50.4034 218.393 50.5014 217.789 50.5831C216.368 50.7628 215.069 51.065 213.893 51.4897C212.733 51.9144 211.802 52.527 211.1 53.3274C210.414 54.1115 210.07 55.157 210.07 56.4638C210.07 58.277 210.74 59.6491 212.08 60.5803C213.419 61.495 215.126 61.9524 217.201 61.9524ZM247.816 44.6534V67H240.49V29.3636H247.522V35.4893H247.987C248.853 33.4964 250.209 31.8956 252.055 30.6868C253.917 29.478 256.261 28.8736 259.087 28.8736C261.652 28.8736 263.898 29.4126 265.825 30.4908C267.753 31.5526 269.248 33.1371 270.309 35.2443C271.371 37.3516 271.902 39.957 271.902 43.0607V67H264.576V43.9428C264.576 41.2148 263.865 39.0831 262.444 37.5476C261.023 35.9957 259.071 35.2198 256.588 35.2198C254.889 35.2198 253.378 35.5874 252.055 36.3224C250.748 37.0575 249.711 38.1357 248.943 39.5568C248.192 40.9616 247.816 42.6605 247.816 44.6534ZM295.846 29.3636V35.2443H275.288V29.3636H295.846ZM280.802 20.3466H288.128V55.9492C288.128 57.3704 288.34 58.4403 288.765 59.1591C289.19 59.8615 289.737 60.3434 290.407 60.6048C291.093 60.8498 291.836 60.9723 292.636 60.9723C293.225 60.9723 293.739 60.9315 294.18 60.8498C294.621 60.7681 294.964 60.7028 295.209 60.6538L296.532 66.706C296.108 66.8693 295.503 67.0327 294.719 67.196C293.935 67.3757 292.955 67.4737 291.779 67.4901C289.851 67.5227 288.054 67.1797 286.388 66.4609C284.722 65.7422 283.374 64.6314 282.345 63.1286C281.316 61.6257 280.802 59.739 280.802 57.4684V20.3466ZM300.501 67V29.3636H307.827V67H300.501ZM304.201 23.5565C302.926 23.5565 301.832 23.1317 300.917 22.2823C300.019 21.4165 299.57 20.3874 299.57 19.195C299.57 17.9861 300.019 16.957 300.917 16.1076C301.832 15.2418 302.926 14.8089 304.201 14.8089C305.475 14.8089 306.561 15.2418 307.459 16.1076C308.374 16.957 308.832 17.9861 308.832 19.195C308.832 20.3874 308.374 21.4165 307.459 22.2823C306.561 23.1317 305.475 23.5565 304.201 23.5565ZM314.233 67V29.3636H321.315V35.3423H321.707C322.393 33.3168 323.602 31.7241 325.333 30.5643C327.081 29.3881 329.057 28.8001 331.263 28.8001C331.72 28.8001 332.259 28.8164 332.88 28.8491C333.517 28.8817 334.015 28.9226 334.375 28.9716V35.9794C334.081 35.8977 333.558 35.8079 332.806 35.7099C332.055 35.5955 331.304 35.5384 330.552 35.5384C328.821 35.5384 327.277 35.9059 325.921 36.641C324.582 37.3597 323.52 38.3643 322.736 39.6548C321.952 40.929 321.56 42.3828 321.56 44.0163V67H314.233Z" fill="#4B382E"/>
<rect x="298.859" y="14.6299" width="10.4316" height="10.0825" fill="white"/>
<rect x="300.502" y="16.7598" width="7.32422" height="8.32373" fill="#4B382E"/>
<rect x="287.67" y="17.3784" width="3.1517" height="8.85644" transform="rotate(70.0989 287.67 17.3784)" fill="white"/>
</svg>
