<svg width="98" height="99" viewBox="0 0 98 99" fill="none" xmlns="http://www.w3.org/2000/svg">
<rect width="97.8652" height="98.0845" fill="white"/>
<path d="M47.1973 75.1222L69.207 67.4116L71.4971 69.7457L73.9498 72.1566L60.2856 76.9148L47.1973 81.5479" stroke="#4B382E"/>
<path d="M47.625 75.1222L25.6153 67.4116L23.26 69.8364L20.8725 72.1566L34.6454 76.8616L47.625 81.5479" stroke="#4B382E"/>
<rect x="25.5527" y="67.8076" width="2.14844" height="6.24888" fill="#4B382E"/>
<rect width="2.14844" height="6.24888" transform="matrix(-1 0 0 1 69.4727 67.7993)" fill="#4B382E"/>
<rect x="28.459" y="68.7769" width="2.14844" height="6.24888" fill="#4B382E"/>
<rect width="2.14844" height="6.24888" transform="matrix(-1 0 0 1 66.5664 68.7686)" fill="#4B382E"/>
<rect x="31.3652" y="69.7461" width="2.14844" height="6.24888" fill="#4B382E"/>
<rect width="2.14844" height="6.24888" transform="matrix(-1 0 0 1 63.6602 69.7373)" fill="#4B382E"/>
<rect x="34.5898" y="70.9321" width="2.14844" height="6.24888" fill="#4B382E"/>
<rect width="2.14844" height="6.24888" transform="matrix(-1 0 0 1 60.4355 70.9238)" fill="#4B382E"/>
<rect x="37.6562" y="72.0718" width="2.14844" height="6.24888" fill="#4B382E"/>
<rect width="2.14844" height="6.24888" transform="matrix(-1 0 0 1 57.3691 72.0635)" fill="#4B382E"/>
<rect x="40.5625" y="73.041" width="2.14844" height="6.24888" fill="#4B382E"/>
<rect width="2.14844" height="6.24888" transform="matrix(-1 0 0 1 54.4629 73.0327)" fill="#4B382E"/>
<rect x="43.4688" y="74.0566" width="2.14844" height="6.24888" fill="#4B382E"/>
<rect width="2.14844" height="6.24888" transform="matrix(-1 0 0 1 51.5566 74.0479)" fill="#4B382E"/>
<rect x="44.8906" y="74.5786" width="2.14844" height="6.24888" fill="#4B382E"/>
<rect width="2.14844" height="6.24888" transform="matrix(-1 0 0 1 50.1348 74.5703)" fill="#4B382E"/>
<rect x="26.9746" y="68.5112" width="2.14844" height="5.88646" fill="#4B382E"/>
<rect width="2.14844" height="5.88646" transform="matrix(-1 0 0 1 68.0508 68.5029)" fill="#4B382E"/>
<rect x="29.8809" y="69.4805" width="2.14844" height="5.88646" fill="#4B382E"/>
<rect width="2.14844" height="5.88646" transform="matrix(-1 0 0 1 65.1445 69.4722)" fill="#4B382E"/>
<rect x="32.7871" y="70.4497" width="2.14844" height="6.01653" fill="#4B382E"/>
<rect width="2.14844" height="6.01653" transform="matrix(-1 0 0 1 62.2383 70.4409)" fill="#4B382E"/>
<rect x="36.0117" y="71.6357" width="2.14844" height="5.88646" fill="#4B382E"/>
<rect width="2.14844" height="5.88646" transform="matrix(-1 0 0 1 59.0137 71.627)" fill="#4B382E"/>
<rect x="39.0781" y="72.7754" width="2.14844" height="5.88646" fill="#4B382E"/>
<rect width="2.14844" height="5.97176" transform="matrix(-1 0 0 1 55.9473 72.6816)" fill="#4B382E"/>
<rect x="41.9844" y="73.7446" width="2.14844" height="5.88646" fill="#4B382E"/>
<rect width="2.14844" height="5.88646" transform="matrix(-1 0 0 1 53.041 73.7358)" fill="#4B382E"/>
<rect x="44.8906" y="74.7598" width="2.14844" height="5.88646" fill="#4B382E"/>
<rect width="2.14844" height="5.88646" transform="matrix(-1 0 0 1 50.1348 74.7515)" fill="#4B382E"/>
<rect x="46.3125" y="75.2827" width="2.14844" height="5.88646" fill="#4B382E"/>
<rect width="2.14844" height="5.88646" transform="matrix(-1 0 0 1 48.7129 75.2744)" fill="#4B382E"/>
<rect x="24.8262" y="67.9331" width="2.14844" height="5.66259" fill="#4B382E"/>
<rect width="2.14844" height="5.66259" transform="matrix(-1 0 0 1 70.1992 67.9243)" fill="#4B382E"/>
<rect x="24.0547" y="68.8706" width="2.14844" height="4.21751" fill="#4B382E"/>
<rect width="2.14844" height="4.21751" transform="matrix(-1 0 0 1 70.9707 68.8613)" fill="#4B382E"/>
<rect x="22.9805" y="69.8218" width="2.14844" height="2.96504" fill="#4B382E"/>
<rect width="2.14844" height="2.96504" transform="matrix(-1 0 0 1 72.0449 69.8135)" fill="#4B382E"/>
<rect x="22.3242" y="70.7905" width="1.86719" height="1.99625" fill="#4B382E"/>
<rect width="1.86719" height="1.99625" transform="matrix(-1 0 0 1 72.7012 70.7817)" fill="#4B382E"/>
<rect x="21.3906" y="71.3042" width="1.86719" height="1.18419" fill="#4B382E"/>
<rect width="1.86719" height="1.18419" transform="matrix(-1 0 0 1 73.6348 71.2959)" fill="#4B382E"/>
<path d="M44.2461 17.4307C44.5932 17.3463 44.9434 17.3277 45.2832 17.3652C48.3639 17.4432 51.2021 18.616 53.2812 20.8291C54.8954 22.5473 55.9306 24.7603 56.3447 27.2832C56.954 27.4745 57.5447 27.7256 58.1045 28.04C59.3193 28.7225 60.3639 29.6735 61.1504 30.8242C61.9371 31.9752 62.4429 33.2934 62.6211 34.6768C62.6929 35.2344 62.7094 35.7957 62.6738 36.3525C63.683 37.1798 64.5306 38.1953 65.1611 39.3525C65.8604 40.636 66.2651 42.0466 66.3564 43.4873C67.5533 44.4687 68.5201 45.7104 69.167 47.1328C70.0831 49.1476 70.3033 51.4026 69.7881 53.5547C69.2731 55.7055 68.0565 57.6191 66.3418 59.0195C64.6285 60.4188 62.5063 61.2344 60.2949 61.3604C60.2383 61.3636 60.1817 61.3652 60.125 61.3652H35.1289C32.8622 61.3653 30.6485 60.6394 28.834 59.2852C27.0178 57.9297 25.6993 56.0158 25.1064 53.8311C24.5132 51.6449 24.6863 49.3297 25.5938 47.2539C26.2402 45.7754 27.231 44.4863 28.4668 43.4736C28.5583 42.033 28.9637 40.6222 29.6631 39.3389C30.2934 38.1824 31.1409 37.1677 32.1494 36.3408C32.1139 35.7843 32.1304 35.2234 32.2021 34.666C32.3801 33.2828 32.8856 31.9645 33.6719 30.8135C34.458 29.6629 35.5024 28.712 36.7168 28.0293C37.9308 27.3468 39.2859 26.9482 40.6758 26.8594L40.8672 26.8535H41.2695C41.6833 26.8535 42.2673 26.6062 42.6592 25.6963C43.0358 24.8216 43.1335 23.4241 42.3359 21.8193C42.0939 21.3866 41.9541 20.8885 41.9541 20.3574V20.3457C41.9541 18.9618 42.9014 17.7575 44.2461 17.4307Z" stroke="#4B382E" stroke-width="6" stroke-linecap="round" stroke-linejoin="round"/>
</svg>
